<svg width="151" height="44" viewBox="0 0 151 44" fill="none" xmlns="http://www.w3.org/2000/svg">
<path d="M22.36 43.6L6.64 6.58C6.12 5.34 5.46 4.34 4.66 3.58C3.9 2.78 2.78 2.24 1.3 1.96L0.1 1.72V0.219996L9.04 0.399998L17.98 0.219996V1.72L16.18 1.9C14.94 2.02 13.94 2.34 13.18 2.86C12.46 3.34 12.1 4.08 12.1 5.08C12.1 5.8 12.32 6.7 12.76 7.78L24.88 36.52L36.52 7.72C36.76 7.16 36.92 6.66 37 6.22C37.12 5.74 37.18 5.32 37.18 4.96C37.18 4 36.86 3.3 36.22 2.86C35.58 2.38 34.7 2.08 33.58 1.96L31.48 1.72V0.219996L39.88 0.399998L45.88 0.219996V1.66L44.5 1.96C42.98 2.28 41.8 2.9 40.96 3.82C40.12 4.74 39.36 6.06 38.68 7.78L24.28 43.6H22.36Z" fill="white"/>
<path d="M40.7 19.06V18.56L40.88 18.54C41.3467 18.4733 41.7267 18.38 42.02 18.26C42.3267 18.14 42.5867 17.9467 42.8 17.68C43.0267 17.4 43.24 17.02 43.44 16.54L48.28 4.8H48.96L53.68 16.54C53.9467 17.1933 54.2333 17.6733 54.54 17.98C54.8467 18.2867 55.2667 18.4667 55.8 18.52L56.2 18.56V19.06L53.72 19L50.52 19.06V18.56L50.92 18.52C51.3867 18.4667 51.72 18.3667 51.92 18.22C52.12 18.0733 52.22 17.8667 52.22 17.6C52.22 17.3333 52.1267 16.9733 51.94 16.52L50.9 13.92H45.26L44.18 16.52C44.0867 16.76 44.0067 16.98 43.94 17.18C43.8733 17.3667 43.84 17.5333 43.84 17.68C43.84 17.9333 43.9467 18.1267 44.16 18.26C44.3867 18.3933 44.7533 18.48 45.26 18.52L45.66 18.56V19.06L43.12 19L40.7 19.06ZM45.52 13.28H50.66L48.14 6.94L45.52 13.28ZM56.7023 19.06V18.56L57.1023 18.52C57.569 18.4667 57.9223 18.4 58.1623 18.32C58.4157 18.24 58.589 18.0533 58.6823 17.76C58.7757 17.4667 58.8223 16.9933 58.8223 16.34V7.46C58.8223 6.79333 58.7757 6.32 58.6823 6.04C58.589 5.74667 58.4157 5.56 58.1623 5.48C57.9223 5.38667 57.569 5.32 57.1023 5.28L56.7023 5.24V4.74L59.7023 4.8L62.2823 4.74V5.2L61.9623 5.24C61.5757 5.28 61.2757 5.34 61.0623 5.42C60.8623 5.5 60.7223 5.67333 60.6423 5.94C60.5623 6.19333 60.5223 6.62 60.5223 7.22V15.56C60.5223 16.2133 60.5557 16.7533 60.6223 17.18C60.7023 17.6067 60.909 17.92 61.2423 18.12C61.5757 18.32 62.1157 18.42 62.8623 18.42H64.3623C65.5223 18.42 66.3557 18.1133 66.8623 17.5C67.3823 16.8733 67.689 15.9733 67.7823 14.8H68.2223L68.0223 19.06L59.6623 19L56.7023 19.06ZM69.7297 19.06V18.56L70.1297 18.52C70.5964 18.4667 70.9497 18.4 71.1897 18.32C71.443 18.24 71.6164 18.0533 71.7097 17.76C71.803 17.4667 71.8497 16.9933 71.8497 16.34V7.46C71.8497 6.79333 71.803 6.32 71.7097 6.04C71.6164 5.74667 71.443 5.56 71.1897 5.48C70.9497 5.38667 70.5964 5.32 70.1297 5.28L69.7297 5.24V4.74L72.7297 4.8L75.3097 4.74V5.2L74.9897 5.24C74.603 5.28 74.303 5.34 74.0897 5.42C73.8897 5.5 73.7497 5.67333 73.6697 5.94C73.5897 6.19333 73.5497 6.62 73.5497 7.22V15.56C73.5497 16.2133 73.583 16.7533 73.6497 17.18C73.7297 17.6067 73.9364 17.92 74.2697 18.12C74.603 18.32 75.143 18.42 75.8897 18.42H77.3897C78.5497 18.42 79.383 18.1133 79.8897 17.5C80.4097 16.8733 80.7164 15.9733 80.8097 14.8H81.2497L81.0497 19.06L72.6897 19L69.7297 19.06ZM82.757 19.06V18.56L83.157 18.52C83.6237 18.4667 83.977 18.4 84.217 18.32C84.4704 18.2267 84.6437 18.04 84.737 17.76C84.8304 17.4667 84.877 16.9933 84.877 16.34V7.46C84.877 6.79333 84.8304 6.32 84.737 6.04C84.6437 5.76 84.4704 5.58 84.217 5.5C83.977 5.40667 83.6237 5.33333 83.157 5.28L82.757 5.24V4.74L85.717 4.8H93.477L93.517 6.24L93.677 8.08H93.197C93.1037 7.48 92.977 7 92.817 6.64C92.6704 6.28 92.457 6.01333 92.177 5.84C91.897 5.65333 91.517 5.53333 91.037 5.48C90.5704 5.41333 89.9637 5.38 89.217 5.38H86.577V11.24H88.817C89.0837 11.24 89.317 11.18 89.517 11.06C89.717 10.9267 89.877 10.6867 89.997 10.34C90.1304 9.99333 90.2104 9.49333 90.237 8.84H90.737L90.677 11.52L90.737 14.48H90.237C90.237 13.5067 90.117 12.82 89.877 12.42C89.637 12.0067 89.2837 11.8 88.817 11.8H86.577V16.86C86.577 17.5 86.717 17.9267 86.997 18.14C87.277 18.34 87.797 18.44 88.557 18.44H90.417C91.1904 18.44 91.7904 18.3533 92.217 18.18C92.657 18.0067 92.9837 17.66 93.197 17.14C93.4104 16.6067 93.557 15.8267 93.637 14.8H94.137L93.997 17.2L93.937 19H85.717L82.757 19.06ZM107.085 19.22C106.352 19.22 105.805 18.9733 105.445 18.48C105.099 17.9733 104.872 17.3533 104.765 16.62C104.699 16.0867 104.592 15.5533 104.445 15.02C104.312 14.4867 104.092 14 103.785 13.56C103.492 13.1067 103.072 12.7467 102.525 12.48C101.992 12.2133 101.292 12.08 100.425 12.08H99.5653V16.34C99.5653 16.9933 99.612 17.4667 99.7053 17.76C99.7986 18.04 99.972 18.2267 100.225 18.32C100.479 18.4 100.832 18.4667 101.285 18.52L101.685 18.56V19.06L98.7253 19H98.7053L95.7453 19.06V18.56L96.1453 18.52C96.612 18.4667 96.9653 18.4 97.2053 18.32C97.4586 18.2267 97.632 18.04 97.7253 17.76C97.8186 17.4667 97.8653 16.9933 97.8653 16.34V7.46C97.8653 6.79333 97.8186 6.32 97.7253 6.04C97.632 5.76 97.4586 5.58 97.2053 5.5C96.9653 5.40667 96.612 5.33333 96.1453 5.28L95.7453 5.24V4.74L98.7053 4.8H101.505C102.412 4.8 103.252 4.90667 104.025 5.12C104.799 5.32 105.419 5.67333 105.885 6.18C106.365 6.68667 106.605 7.39333 106.605 8.3C106.605 9.1 106.425 9.75333 106.065 10.26C105.719 10.7533 105.252 11.1333 104.665 11.4C104.092 11.6533 103.465 11.8333 102.785 11.94C103.772 12.0067 104.572 12.3467 105.185 12.96C105.812 13.56 106.212 14.4467 106.385 15.62C106.505 16.3667 106.652 16.9533 106.825 17.38C107.012 17.7933 107.212 18.0867 107.425 18.26C107.652 18.42 107.879 18.5 108.105 18.5C108.252 18.5 108.392 18.4733 108.525 18.42C108.672 18.3667 108.799 18.3133 108.905 18.26L109.045 18.76C108.832 18.8667 108.545 18.9667 108.185 19.06C107.825 19.1667 107.459 19.22 107.085 19.22ZM101.545 5.32H99.5653V11.54H101.245C102.525 11.54 103.419 11.28 103.925 10.76C104.445 10.24 104.705 9.46 104.705 8.42C104.705 7.43333 104.472 6.67333 104.005 6.14C103.539 5.59333 102.719 5.32 101.545 5.32ZM109.652 19.06V18.56L110.052 18.52C110.518 18.4667 110.872 18.4 111.112 18.32C111.365 18.2267 111.538 18.04 111.632 17.76C111.725 17.4667 111.772 16.9933 111.772 16.34V7.46C111.772 6.79333 111.725 6.32 111.632 6.04C111.538 5.76 111.365 5.58 111.112 5.5C110.872 5.40667 110.518 5.33333 110.052 5.28L109.652 5.24V4.74L112.612 4.8H112.632L115.592 4.74V5.24L115.192 5.28C114.738 5.33333 114.385 5.40667 114.132 5.5C113.878 5.58 113.705 5.76 113.612 6.04C113.518 6.32 113.472 6.79333 113.472 7.46V16.34C113.472 16.9933 113.518 17.4667 113.612 17.76C113.705 18.04 113.878 18.2267 114.132 18.32C114.385 18.4 114.738 18.4667 115.192 18.52L115.592 18.56V19.06L112.632 19H112.612L109.652 19.06ZM117.191 19.06V18.56L117.591 18.52C118.057 18.4667 118.411 18.4 118.651 18.32C118.904 18.2267 119.077 18.04 119.171 17.76C119.264 17.4667 119.311 16.9933 119.311 16.34V7.46C119.311 6.79333 119.264 6.32 119.171 6.04C119.077 5.76 118.904 5.58 118.651 5.5C118.411 5.40667 118.057 5.33333 117.591 5.28L117.191 5.24V4.74L120.151 4.8H127.911L127.951 6.24L128.111 8.08H127.631C127.537 7.48 127.411 7 127.251 6.64C127.104 6.28 126.891 6.01333 126.611 5.84C126.331 5.65333 125.951 5.53333 125.471 5.48C125.004 5.41333 124.397 5.38 123.651 5.38H121.011V11.24H123.251C123.517 11.24 123.751 11.18 123.951 11.06C124.151 10.9267 124.311 10.6867 124.431 10.34C124.564 9.99333 124.644 9.49333 124.671 8.84H125.171L125.111 11.52L125.171 14.48H124.671C124.671 13.5067 124.551 12.82 124.311 12.42C124.071 12.0067 123.717 11.8 123.251 11.8H121.011V16.86C121.011 17.5 121.151 17.9267 121.431 18.14C121.711 18.34 122.231 18.44 122.991 18.44H124.851C125.624 18.44 126.224 18.3533 126.651 18.18C127.091 18.0067 127.417 17.66 127.631 17.14C127.844 16.6067 127.991 15.8267 128.071 14.8H128.571L128.431 17.2L128.371 19H120.151L117.191 19.06Z" fill="white"/>
<path d="M31.72 43.66C30.2 43.66 28.9 43.48 27.82 43.12C26.78 42.8 25.96 42.5 25.36 42.22C24.72 41.9 24.32 41.74 24.16 41.74C24 41.74 23.86 41.82 23.74 41.98C23.66 42.1 23.56 42.44 23.44 43H22.06L22.3 39.04L22.48 33.94H23.8L23.86 34.96C23.94 36.08 24.3 37.2 24.94 38.32C25.62 39.44 26.54 40.38 27.7 41.14C28.86 41.9 30.2 42.28 31.72 42.28C33.36 42.28 34.68 41.86 35.68 41.02C36.68 40.18 37.18 39.02 37.18 37.54C37.18 36.26 36.66 35.18 35.62 34.3C34.62 33.42 33.22 32.64 31.42 31.96L29.26 31.12C27.18 30.32 25.6 29.32 24.52 28.12C23.48 26.92 22.96 25.38 22.96 23.5C22.96 21.9 23.32 20.54 24.04 19.42C24.8 18.26 25.78 17.36 26.98 16.72C28.22 16.08 29.54 15.76 30.94 15.76C31.94 15.76 32.78 15.88 33.46 16.12C34.18 16.36 34.78 16.6 35.26 16.84C35.66 17.04 36 17.14 36.28 17.14C36.68 17.14 37 16.72 37.24 15.88L38.56 15.94L38.32 19.84V24.04H36.94C36.66 22.16 36.02 20.54 35.02 19.18C34.02 17.78 32.58 17.08 30.7 17.08C29.38 17.08 28.26 17.5 27.34 18.34C26.46 19.18 26.02 20.24 26.02 21.52C26.02 22.76 26.48 23.8 27.4 24.64C28.36 25.44 29.66 26.16 31.3 26.8L33.64 27.7C36.08 28.62 37.76 29.74 38.68 31.06C39.64 32.34 40.12 33.88 40.12 35.68C40.12 37.8 39.4 39.66 37.96 41.26C36.52 42.86 34.44 43.66 31.72 43.66Z" fill="white"/>
<path d="M38.7 43.06V42.56L38.88 42.54C39.3467 42.4733 39.7267 42.38 40.02 42.26C40.3267 42.14 40.5867 41.9467 40.8 41.68C41.0267 41.4 41.24 41.02 41.44 40.54L46.28 28.8H46.96L51.68 40.54C51.9467 41.1933 52.2333 41.6733 52.54 41.98C52.8467 42.2867 53.2667 42.4667 53.8 42.52L54.2 42.56V43.06L51.72 43L48.52 43.06V42.56L48.92 42.52C49.3867 42.4667 49.72 42.3667 49.92 42.22C50.12 42.0733 50.22 41.8667 50.22 41.6C50.22 41.3333 50.1267 40.9733 49.94 40.52L48.9 37.92H43.26L42.18 40.52C42.0867 40.76 42.0067 40.98 41.94 41.18C41.8733 41.3667 41.84 41.5333 41.84 41.68C41.84 41.9333 41.9467 42.1267 42.16 42.26C42.3867 42.3933 42.7533 42.48 43.26 42.52L43.66 42.56V43.06L41.12 43L38.7 43.06ZM43.52 37.28H48.66L46.14 30.94L43.52 37.28ZM54.7023 43.06V42.56L55.1023 42.52C55.569 42.4667 55.9223 42.4 56.1623 42.32C56.4157 42.24 56.589 42.0533 56.6823 41.76C56.7757 41.4667 56.8223 40.9933 56.8223 40.34V31.46C56.8223 30.7933 56.7757 30.32 56.6823 30.04C56.589 29.7467 56.4157 29.56 56.1623 29.48C55.9223 29.3867 55.569 29.32 55.1023 29.28L54.7023 29.24V28.74L57.7023 28.8L60.2823 28.74V29.2L59.9623 29.24C59.5757 29.28 59.2757 29.34 59.0623 29.42C58.8623 29.5 58.7223 29.6733 58.6423 29.94C58.5623 30.1933 58.5223 30.62 58.5223 31.22V39.56C58.5223 40.2133 58.5557 40.7533 58.6223 41.18C58.7023 41.6067 58.909 41.92 59.2423 42.12C59.5757 42.32 60.1157 42.42 60.8623 42.42H62.3623C63.5223 42.42 64.3557 42.1133 64.8623 41.5C65.3823 40.8733 65.689 39.9733 65.7823 38.8H66.2223L66.0223 43.06L57.6623 43L54.7023 43.06ZM67.7297 43.06V42.56L68.1297 42.52C68.5964 42.4667 68.9497 42.4 69.1897 42.32C69.443 42.2267 69.6164 42.04 69.7097 41.76C69.803 41.4667 69.8497 40.9933 69.8497 40.34V31.46C69.8497 30.7933 69.803 30.32 69.7097 30.04C69.6164 29.76 69.443 29.58 69.1897 29.5C68.9497 29.4067 68.5964 29.3333 68.1297 29.28L67.7297 29.24V28.74L70.6897 28.8H70.7097L73.6697 28.74V29.24L73.2697 29.28C72.8164 29.3333 72.463 29.4067 72.2097 29.5C71.9564 29.58 71.783 29.76 71.6897 30.04C71.5964 30.32 71.5497 30.7933 71.5497 31.46V40.34C71.5497 40.9933 71.5964 41.4667 71.6897 41.76C71.783 42.04 71.9564 42.2267 72.2097 42.32C72.463 42.4 72.8164 42.4667 73.2697 42.52L73.6697 42.56V43.06L70.7097 43H70.6897L67.7297 43.06ZM75.2488 43.08V42.58L75.6488 42.54C76.1154 42.4867 76.4688 42.42 76.7088 42.34C76.9621 42.26 77.1354 42.0733 77.2288 41.78C77.3221 41.4867 77.3688 41.0067 77.3688 40.34V30.02C77.2488 29.8733 77.0688 29.7133 76.8288 29.54C76.5888 29.3533 76.2354 29.26 75.7688 29.26H75.1688V28.74L79.0488 28.8C79.2888 29.1333 79.6088 29.5733 80.0088 30.12C80.4221 30.6667 80.8754 31.2733 81.3688 31.94C81.8754 32.6067 82.3954 33.2933 82.9288 34C83.4621 34.6933 83.9754 35.3667 84.4688 36.02C84.9754 36.6733 85.4288 37.26 85.8288 37.78C86.2288 38.3 86.5421 38.7133 86.7688 39.02V31.46C86.7688 30.7933 86.7221 30.32 86.6288 30.04C86.5354 29.7467 86.3621 29.56 86.1088 29.48C85.8688 29.3867 85.5154 29.32 85.0488 29.28L84.6488 29.24V28.74L87.2488 28.8L89.6888 28.74V29.24L89.2888 29.28C88.8354 29.3333 88.4821 29.4067 88.2288 29.5C87.9754 29.58 87.8021 29.76 87.7088 30.04C87.6154 30.32 87.5688 30.7933 87.5688 31.46V43H86.9688C86.7554 42.56 86.4354 42.02 86.0088 41.38C85.5954 40.7267 85.1154 40.0133 84.5687 39.24C84.0221 38.4667 83.4488 37.68 82.8488 36.88C82.2621 36.0667 81.6754 35.28 81.0888 34.52C80.5021 33.76 79.9554 33.0667 79.4488 32.44C78.9421 31.8133 78.5154 31.2933 78.1688 30.88V40.34C78.1688 41.0067 78.2154 41.4867 78.3088 41.78C78.4021 42.0733 78.5754 42.26 78.8288 42.34C79.0821 42.42 79.4354 42.4867 79.8888 42.54L80.2888 42.58V43.08L77.7288 43L75.2488 43.08ZM90.8938 43.06V42.56L91.2938 42.52C91.7604 42.4667 92.1138 42.4 92.3538 42.32C92.6071 42.2267 92.7804 42.04 92.8738 41.76C92.9804 41.4667 93.0337 40.9933 93.0337 40.34V31.46C93.0337 30.7933 92.9871 30.32 92.8938 30.04C92.8004 29.76 92.6271 29.58 92.3738 29.5C92.1338 29.4067 91.7804 29.3333 91.3138 29.28L90.9138 29.24V28.74L93.8738 28.8H96.6938C98.4938 28.8 100.014 29.04 101.254 29.52C102.507 30 103.46 30.76 104.114 31.8C104.767 32.8267 105.094 34.1733 105.094 35.84C105.094 37.0267 104.894 38.0667 104.494 38.96C104.094 39.8533 103.547 40.6 102.854 41.2C102.16 41.8 101.367 42.2533 100.474 42.56C99.5938 42.8533 98.6671 43 97.6938 43H93.8538L90.8938 43.06ZM96.0738 42.4H97.7738C99.4004 42.4 100.707 41.8733 101.694 40.82C102.68 39.7533 103.174 38.1067 103.174 35.88C103.174 34.52 102.98 33.36 102.594 32.4C102.22 31.4267 101.6 30.6867 100.734 30.18C99.8804 29.66 98.7271 29.4 97.2738 29.4H94.7538V40.08C94.7538 40.4667 94.7804 40.84 94.8338 41.2C94.8871 41.5467 95.0071 41.8333 95.1938 42.06C95.3804 42.2867 95.6738 42.4 96.0738 42.4ZM106.343 43.06V42.56L106.743 42.52C107.21 42.4667 107.563 42.4 107.803 42.32C108.056 42.2267 108.23 42.04 108.323 41.76C108.416 41.4667 108.463 40.9933 108.463 40.34V31.46C108.463 30.7933 108.416 30.32 108.323 30.04C108.23 29.76 108.056 29.58 107.803 29.5C107.563 29.4067 107.21 29.3333 106.743 29.28L106.343 29.24V28.74L109.303 28.8H117.063L117.103 30.24L117.263 32.08H116.783C116.69 31.48 116.563 31 116.403 30.64C116.256 30.28 116.043 30.0133 115.763 29.84C115.483 29.6533 115.103 29.5333 114.623 29.48C114.156 29.4133 113.55 29.38 112.803 29.38H110.163V35.24H112.403C112.67 35.24 112.903 35.18 113.103 35.06C113.303 34.9267 113.463 34.6867 113.583 34.34C113.716 33.9933 113.796 33.4933 113.823 32.84H114.323L114.263 35.52L114.323 38.48H113.823C113.823 37.5067 113.703 36.82 113.463 36.42C113.223 36.0067 112.87 35.8 112.403 35.8H110.163V40.86C110.163 41.5 110.303 41.9267 110.583 42.14C110.863 42.34 111.383 42.44 112.143 42.44H114.003C114.776 42.44 115.376 42.3533 115.803 42.18C116.243 42.0067 116.57 41.66 116.783 41.14C116.996 40.6067 117.143 39.8267 117.223 38.8H117.723L117.583 41.2L117.523 43H109.303L106.343 43.06ZM119.331 43.06V42.56L119.731 42.52C120.198 42.4667 120.551 42.4 120.791 42.32C121.045 42.2267 121.218 42.04 121.311 41.76C121.405 41.4667 121.451 40.9933 121.451 40.34V31.46C121.451 30.7933 121.405 30.32 121.311 30.04C121.218 29.76 121.045 29.58 120.791 29.5C120.551 29.4067 120.198 29.3333 119.731 29.28L119.331 29.24V28.74L122.291 28.8H122.311L125.271 28.74V29.24L124.871 29.28C124.418 29.3333 124.065 29.4067 123.811 29.5C123.558 29.58 123.385 29.76 123.291 30.04C123.198 30.32 123.151 30.7933 123.151 31.46V35.32H130.771V31.46C130.771 30.7933 130.725 30.32 130.631 30.04C130.538 29.76 130.365 29.58 130.111 29.5C129.871 29.4067 129.518 29.3333 129.051 29.28L128.651 29.24V28.74L131.611 28.8H131.631L134.591 28.74V29.24L134.191 29.28C133.738 29.3333 133.385 29.4067 133.131 29.5C132.878 29.58 132.705 29.76 132.611 30.04C132.518 30.32 132.471 30.7933 132.471 31.46V40.34C132.471 40.9933 132.518 41.4667 132.611 41.76C132.705 42.04 132.878 42.2267 133.131 42.32C133.385 42.4 133.738 42.4667 134.191 42.52L134.591 42.56V43.06L131.631 43H131.611L128.651 43.06V42.56L129.051 42.52C129.518 42.4667 129.871 42.4 130.111 42.32C130.365 42.2267 130.538 42.04 130.631 41.76C130.725 41.4667 130.771 40.9933 130.771 40.34V35.96H123.151V40.34C123.151 40.9933 123.198 41.4667 123.291 41.76C123.385 42.04 123.558 42.2267 123.811 42.32C124.065 42.4 124.418 42.4667 124.871 42.52L125.271 42.56V43.06L122.311 43H122.291L119.331 43.06ZM143.567 43.22C142.567 43.22 141.64 43.04 140.787 42.68C139.947 42.32 139.213 41.8133 138.587 41.16C137.973 40.5067 137.493 39.7333 137.147 38.84C136.8 37.9333 136.627 36.94 136.627 35.86C136.627 34.78 136.8 33.7933 137.147 32.9C137.493 32.0067 137.973 31.2333 138.587 30.58C139.213 29.9267 139.947 29.42 140.787 29.06C141.64 28.7 142.567 28.52 143.567 28.52C144.567 28.52 145.487 28.7 146.327 29.06C147.18 29.42 147.913 29.9267 148.527 30.58C149.153 31.2333 149.64 32.0067 149.987 32.9C150.333 33.7933 150.507 34.78 150.507 35.86C150.507 36.94 150.333 37.9333 149.987 38.84C149.64 39.7333 149.153 40.5067 148.527 41.16C147.913 41.8133 147.18 42.32 146.327 42.68C145.487 43.04 144.567 43.22 143.567 43.22ZM143.567 42.62C144.727 42.62 145.667 42.3467 146.387 41.8C147.107 41.2533 147.633 40.48 147.967 39.48C148.3 38.4667 148.467 37.26 148.467 35.86C148.467 34.46 148.3 33.26 147.967 32.26C147.633 31.2467 147.107 30.4733 146.387 29.94C145.667 29.3933 144.727 29.12 143.567 29.12C142.42 29.12 141.48 29.3933 140.747 29.94C140.027 30.4733 139.5 31.2467 139.167 32.26C138.833 33.26 138.667 34.46 138.667 35.86C138.667 37.26 138.833 38.4667 139.167 39.48C139.5 40.48 140.027 41.2533 140.747 41.8C141.48 42.3467 142.42 42.62 143.567 42.62Z" fill="white"/>
</svg>
